<svg width="112" height="40" viewBox="0 0 112 40" fill="none" xmlns="http://www.w3.org/2000/svg">
<path d="M17.982 29H14.202L5.643 16.067V29H1.863V10.127H5.643L14.202 23.087V10.127H17.982V29ZM35.6225 21.197C35.6225 21.737 35.5865 22.223 35.5145 22.655H24.5795C24.6695 23.735 25.0475 24.581 25.7135 25.193C26.3795 25.805 27.1985 26.111 28.1705 26.111C29.5745 26.111 30.5735 25.508 31.1675 24.302H35.2445C34.8125 25.742 33.9845 26.93 32.7605 27.866C31.5365 28.784 30.0335 29.243 28.2515 29.243C26.8115 29.243 25.5155 28.928 24.3635 28.298C23.2295 27.65 22.3385 26.741 21.6905 25.571C21.0605 24.401 20.7455 23.051 20.7455 21.521C20.7455 19.973 21.0605 18.614 21.6905 17.444C22.3205 16.274 23.2025 15.374 24.3365 14.744C25.4705 14.114 26.7755 13.799 28.2515 13.799C29.6735 13.799 30.9425 14.105 32.0585 14.717C33.1925 15.329 34.0655 16.202 34.6775 17.336C35.3075 18.452 35.6225 19.739 35.6225 21.197ZM31.7075 20.117C31.6895 19.145 31.3385 18.371 30.6545 17.795C29.9705 17.201 29.1335 16.904 28.1435 16.904C27.2075 16.904 26.4155 17.192 25.7675 17.768C25.1375 18.326 24.7505 19.109 24.6065 20.117H31.7075ZM42.1616 16.364C42.6476 15.572 43.2776 14.951 44.0516 14.501C44.8436 14.051 45.7436 13.826 46.7516 13.826V17.795H45.7526C44.5646 17.795 43.6646 18.074 43.0526 18.632C42.4586 19.19 42.1616 20.162 42.1616 21.548V29H38.3816V14.042H42.1616V16.364ZM48.3256 21.467C48.3256 19.955 48.6226 18.614 49.2166 17.444C49.8286 16.274 50.6566 15.374 51.7006 14.744C52.7446 14.114 53.9056 13.799 55.1836 13.799C56.1556 13.799 57.0826 14.015 57.9646 14.447C58.8466 14.861 59.5486 15.419 60.0706 16.121V9.02H63.9046V29H60.0706V26.786C59.6026 27.524 58.9456 28.118 58.0996 28.568C57.2536 29.018 56.2726 29.243 55.1566 29.243C53.8966 29.243 52.7446 28.919 51.7006 28.271C50.6566 27.623 49.8286 26.714 49.2166 25.544C48.6226 24.356 48.3256 22.997 48.3256 21.467ZM60.0976 21.521C60.0976 20.603 59.9176 19.82 59.5576 19.172C59.1976 18.506 58.7116 18.002 58.0996 17.66C57.4876 17.3 56.8306 17.12 56.1286 17.12C55.4266 17.12 54.7786 17.291 54.1846 17.633C53.5906 17.975 53.1046 18.479 52.7266 19.145C52.3666 19.793 52.1866 20.567 52.1866 21.467C52.1866 22.367 52.3666 23.159 52.7266 23.843C53.1046 24.509 53.5906 25.022 54.1846 25.382C54.7966 25.742 55.4446 25.922 56.1286 25.922C56.8306 25.922 57.4876 25.751 58.0996 25.409C58.7116 25.049 59.1976 24.545 59.5576 23.897C59.9176 23.231 60.0976 22.439 60.0976 21.521Z" fill="white"/>
<path d="M71.3764 26.003H77.5864V29H67.5964V10.154H71.3764V26.003ZM81.906 12.26C81.24 12.26 80.682 12.053 80.232 11.639C79.8 11.207 79.584 10.676 79.584 10.046C79.584 9.416 79.8 8.894 80.232 8.48C80.682 8.048 81.24 7.832 81.906 7.832C82.572 7.832 83.121 8.048 83.553 8.48C84.003 8.894 84.228 9.416 84.228 10.046C84.228 10.676 84.003 11.207 83.553 11.639C83.121 12.053 82.572 12.26 81.906 12.26ZM83.769 14.042V29H79.989V14.042H83.769ZM94.3616 17.147H91.7426V29H87.9086V17.147H86.2076V14.042H87.9086V13.286C87.9086 11.45 88.4306 10.1 89.4746 9.236C90.5186 8.372 92.0936 7.967 94.1996 8.021V11.207C93.2816 11.189 92.6426 11.342 92.2826 11.666C91.9226 11.99 91.7426 12.575 91.7426 13.421V14.042H94.3616V17.147ZM110.716 21.197C110.716 21.737 110.68 22.223 110.608 22.655H99.6732C99.7632 23.735 100.141 24.581 100.807 25.193C101.473 25.805 102.292 26.111 103.264 26.111C104.668 26.111 105.667 25.508 106.261 24.302H110.338C109.906 25.742 109.078 26.93 107.854 27.866C106.63 28.784 105.127 29.243 103.345 29.243C101.905 29.243 100.609 28.928 99.4572 28.298C98.3232 27.65 97.4322 26.741 96.7842 25.571C96.1542 24.401 95.8392 23.051 95.8392 21.521C95.8392 19.973 96.1542 18.614 96.7842 17.444C97.4142 16.274 98.2962 15.374 99.4302 14.744C100.564 14.114 101.869 13.799 103.345 13.799C104.767 13.799 106.036 14.105 107.152 14.717C108.286 15.329 109.159 16.202 109.771 17.336C110.401 18.452 110.716 19.739 110.716 21.197ZM106.801 20.117C106.783 19.145 106.432 18.371 105.748 17.795C105.064 17.201 104.227 16.904 103.237 16.904C102.301 16.904 101.509 17.192 100.861 17.768C100.231 18.326 99.8442 19.109 99.7002 20.117H106.801Z" fill="#7CF895"/>
</svg>
